<?xml version="1.0" encoding="UTF-8"?>
<svg xmlns="http://www.w3.org/2000/svg" width="200" height="200" viewBox="0 0 80 80" fill="none">
  <defs>
    <linearGradient id="g1" x1="0" y1="0" x2="0" y2="1">
      <stop offset="0%" stop-color="#4F86F7"/>
      <stop offset="100%" stop-color="#2563EB"/>
    </linearGradient>
    <linearGradient id="g2" x1="0" y1="0" x2="1" y2="1">
      <stop offset="0%" stop-color="#1E3A8A"/>
      <stop offset="100%" stop-color="#0F172A"/>
    </linearGradient>
    <filter id="softShadow" x="-20%" y="-20%" width="140%" height="140%">
      <feDropShadow dx="0" dy="3" stdDeviation="3" flood-color="#000" flood-opacity="0.18"/>
    </filter>
  </defs>
  <g filter="url(#softShadow)">
    <rect x="8" y="12" width="64" height="56" rx="14" fill="url(#g1)"/>
    <rect x="8" y="12" width="64" height="56" rx="14" fill="url(#g2)" opacity="0.08"/>
    <rect x="8" y="12" width="64" height="14" rx="14" fill="#fff" opacity="0.18"/>
    <rect x="20" y="8" width="8" height="14" rx="4" fill="#fff"/>
    <rect x="52" y="8" width="8" height="14" rx="4" fill="#fff"/>
    <circle cx="24" cy="34" r="3" fill="#fff"/>
    <circle cx="40" cy="34" r="3" fill="#fff"/>
    <circle cx="56" cy="34" r="3" fill="#fff"/>
    <circle cx="24" cy="48" r="3" fill="#fff"/>
    <circle cx="40" cy="48" r="3" fill="#fff"/>
    <circle cx="56" cy="48" r="3" fill="#fff"/>
    <path d="M30 54l8 8 18-18" stroke="#fff" stroke-width="4" stroke-linecap="round" stroke-linejoin="round" opacity="0.9"/>
  </g>
</svg>
